<svg width="283" height="44" viewBox="0 0 283 44" fill="none" xmlns="http://www.w3.org/2000/svg">
<g filter="url(#filter0_di_8_3)">
<path d="M28.1562 16.9062V31.0859C27.6562 31.6016 26.9141 32.2031 25.9297 32.8906C24.9609 33.5781 23.7109 34.1797 22.1797 34.6953C20.6641 35.2109 18.8438 35.4688 16.7188 35.4688C14.7969 35.4688 13.0547 35.1719 11.4922 34.5781C9.94531 33.9844 8.61719 33.0859 7.50781 31.8828C6.41406 30.6641 5.57031 29.1406 4.97656 27.3125C4.39844 25.4844 4.10938 23.3125 4.10938 20.7969V15.0781C4.10938 12.5938 4.39844 10.4297 4.97656 8.58594C5.55469 6.74219 6.38281 5.21094 7.46094 3.99219C8.53906 2.77344 9.82031 1.86719 11.3047 1.27344C12.7891 0.679688 14.4609 0.382812 16.3203 0.382812C18.9609 0.382812 21.1328 0.828125 22.8359 1.71875C24.5391 2.60938 25.8203 3.90625 26.6797 5.60938C27.5391 7.3125 28.0234 9.39844 28.1328 11.8672H20.9844C20.8906 10.4922 20.6719 9.40625 20.3281 8.60938C20 7.8125 19.5234 7.24219 18.8984 6.89844C18.2891 6.55469 17.5 6.38281 16.5312 6.38281C15.7188 6.38281 15 6.53906 14.375 6.85156C13.7656 7.14844 13.25 7.64062 12.8281 8.32812C12.4219 9 12.1172 9.89062 11.9141 11C11.7109 12.0938 11.6094 13.4375 11.6094 15.0312V20.7969C11.6094 22.3906 11.7109 23.7422 11.9141 24.8516C12.1328 25.9453 12.4609 26.8359 12.8984 27.5234C13.3516 28.1953 13.9297 28.6875 14.6328 29C15.3516 29.2969 16.2031 29.4453 17.1875 29.4453C17.9062 29.4453 18.4844 29.3672 18.9219 29.2109C19.375 29.0547 19.7422 28.875 20.0234 28.6719C20.3203 28.4688 20.5547 28.3281 20.7266 28.25V22.3203H16.25V16.9062H28.1562Z" fill="#BF0000"/>
<path d="M47.0234 29.6094V17.9141C47.0234 17.0547 46.875 16.3125 46.5781 15.6875C46.2812 15.0625 45.8281 14.5781 45.2188 14.2344C44.6094 13.8906 43.8359 13.7188 42.8984 13.7188C42.0703 13.7188 41.3438 13.8594 40.7188 14.1406C40.1094 14.4219 39.6406 14.8203 39.3125 15.3359C38.9844 15.8359 38.8203 16.4141 38.8203 17.0703H32.6094C32.6094 16.0234 32.8594 15.0312 33.3594 14.0938C33.8594 13.1406 34.5703 12.2969 35.4922 11.5625C36.4297 10.8125 37.5469 10.2266 38.8438 9.80469C40.1562 9.38281 41.625 9.17188 43.25 9.17188C45.1719 9.17188 46.8828 9.5 48.3828 10.1562C49.8984 10.7969 51.0859 11.7656 51.9453 13.0625C52.8203 14.3594 53.2578 15.9922 53.2578 17.9609V29.0234C53.2578 30.2891 53.3359 31.375 53.4922 32.2812C53.6641 33.1719 53.9141 33.9453 54.2422 34.6016V35H47.9375C47.6406 34.3594 47.4141 33.5469 47.2578 32.5625C47.1016 31.5625 47.0234 30.5781 47.0234 29.6094ZM47.8906 19.5547L47.9375 23.2344H44.0234C43.0547 23.2344 42.2031 23.3359 41.4688 23.5391C40.7344 23.7266 40.1328 24.0078 39.6641 24.3828C39.1953 24.7422 38.8438 25.1797 38.6094 25.6953C38.375 26.1953 38.2578 26.7656 38.2578 27.4062C38.2578 28.0312 38.3984 28.5938 38.6797 29.0938C38.9766 29.5938 39.3984 29.9922 39.9453 30.2891C40.5078 30.5703 41.1641 30.7109 41.9141 30.7109C43.0078 30.7109 43.9609 30.4922 44.7734 30.0547C45.5859 29.6016 46.2188 29.0547 46.6719 28.4141C47.125 27.7734 47.3672 27.1641 47.3984 26.5859L49.1797 29.2578C48.9609 29.8984 48.6328 30.5781 48.1953 31.2969C47.7578 32.0156 47.1953 32.6875 46.5078 33.3125C45.8203 33.9375 44.9922 34.4531 44.0234 34.8594C43.0547 35.2656 41.9297 35.4688 40.6484 35.4688C39.0078 35.4688 37.5391 35.1406 36.2422 34.4844C34.9453 33.8281 33.9219 32.9297 33.1719 31.7891C32.4219 30.6484 32.0469 29.3516 32.0469 27.8984C32.0469 26.5547 32.2969 25.3672 32.7969 24.3359C33.2969 23.3047 34.0391 22.4375 35.0234 21.7344C36.0078 21.0156 37.2266 20.4766 38.6797 20.1172C40.1484 19.7422 41.8281 19.5547 43.7188 19.5547H47.8906Z" fill="#098B26"/>
<path d="M65 14.8438V35H58.8125V9.64062H64.6484L65 14.8438ZM64.0859 21.4062H62.1875C62.1875 19.6406 62.3984 18.0156 62.8203 16.5312C63.2578 15.0469 63.8984 13.7578 64.7422 12.6641C65.5859 11.5547 66.625 10.6953 67.8594 10.0859C69.1094 9.47656 70.5547 9.17188 72.1953 9.17188C73.3359 9.17188 74.3828 9.34375 75.3359 9.6875C76.2891 10.0156 77.1094 10.5391 77.7969 11.2578C78.5 11.9609 79.0391 12.8828 79.4141 14.0234C79.7891 15.1484 79.9766 16.5 79.9766 18.0781V35H73.7891V18.7109C73.7891 17.5234 73.6172 16.5938 73.2734 15.9219C72.9453 15.25 72.4688 14.7812 71.8438 14.5156C71.2188 14.2344 70.4688 14.0938 69.5938 14.0938C68.625 14.0938 67.7891 14.2891 67.0859 14.6797C66.3984 15.0547 65.8281 15.5781 65.375 16.25C64.9375 16.9219 64.6094 17.6953 64.3906 18.5703C64.1875 19.4453 64.0859 20.3906 64.0859 21.4062ZM79.5078 20.2578L76.9531 20.7266C76.9688 19.1328 77.1875 17.6406 77.6094 16.25C78.0312 14.8438 78.6484 13.6172 79.4609 12.5703C80.2891 11.5078 81.3125 10.6797 82.5312 10.0859C83.7656 9.47656 85.1875 9.17188 86.7969 9.17188C88.0469 9.17188 89.1719 9.35156 90.1719 9.71094C91.1875 10.0547 92.0547 10.6094 92.7734 11.375C93.4922 12.125 94.0391 13.1016 94.4141 14.3047C94.8047 15.5078 95 16.9766 95 18.7109V35H88.7656V18.6875C88.7656 17.4531 88.5938 16.5078 88.25 15.8516C87.9219 15.1953 87.4453 14.7422 86.8203 14.4922C86.1953 14.2266 85.4609 14.0938 84.6172 14.0938C83.7578 14.0938 83.0078 14.2578 82.3672 14.5859C81.7422 14.8984 81.2109 15.3359 80.7734 15.8984C80.3516 16.4609 80.0312 17.1172 79.8125 17.8672C79.6094 18.6016 79.5078 19.3984 79.5078 20.2578Z" fill="#0023DA"/>
<path d="M111.945 35.4688C110.023 35.4688 108.297 35.1562 106.766 34.5312C105.234 33.9062 103.93 33.0391 102.852 31.9297C101.789 30.8047 100.969 29.5 100.391 28.0156C99.8281 26.5156 99.5469 24.9062 99.5469 23.1875V22.25C99.5469 20.2969 99.8281 18.5234 100.391 16.9297C100.953 15.3203 101.75 13.9375 102.781 12.7812C103.812 11.625 105.047 10.7344 106.484 10.1094C107.922 9.48438 109.508 9.17188 111.242 9.17188C113.039 9.17188 114.625 9.47656 116 10.0859C117.375 10.6797 118.523 11.5234 119.445 12.6172C120.367 13.7109 121.062 15.0234 121.531 16.5547C122 18.0703 122.234 19.75 122.234 21.5938V24.1953H102.359V19.9297H116.141V19.4609C116.109 18.4766 115.922 17.5781 115.578 16.7656C115.234 15.9375 114.703 15.2812 113.984 14.7969C113.266 14.2969 112.336 14.0469 111.195 14.0469C110.273 14.0469 109.469 14.25 108.781 14.6562C108.109 15.0469 107.547 15.6094 107.094 16.3438C106.656 17.0625 106.328 17.9219 106.109 18.9219C105.891 19.9219 105.781 21.0312 105.781 22.25V23.1875C105.781 24.25 105.922 25.2344 106.203 26.1406C106.5 27.0469 106.93 27.8359 107.492 28.5078C108.07 29.1641 108.758 29.6797 109.555 30.0547C110.367 30.4141 111.289 30.5938 112.32 30.5938C113.617 30.5938 114.789 30.3438 115.836 29.8438C116.898 29.3281 117.82 28.5703 118.602 27.5703L121.719 30.8047C121.188 31.5859 120.469 32.3359 119.562 33.0547C118.672 33.7734 117.594 34.3594 116.328 34.8125C115.062 35.25 113.602 35.4688 111.945 35.4688Z" fill="#690006"/>
<path d="M160.461 29.9375V35H143.305V29.9375H160.461ZM145.25 0.875V35H138.805V0.875H145.25Z" fill="#2CA800"/>
<path d="M163.203 22.5781V22.0859C163.203 20.2266 163.469 18.5156 164 16.9531C164.531 15.375 165.305 14.0078 166.32 12.8516C167.336 11.6953 168.578 10.7969 170.047 10.1562C171.516 9.5 173.188 9.17188 175.062 9.17188C176.969 9.17188 178.656 9.5 180.125 10.1562C181.609 10.7969 182.859 11.6953 183.875 12.8516C184.891 14.0078 185.664 15.375 186.195 16.9531C186.727 18.5156 186.992 20.2266 186.992 22.0859V22.5781C186.992 24.4219 186.727 26.1328 186.195 27.7109C185.664 29.2734 184.891 30.6406 183.875 31.8125C182.859 32.9688 181.617 33.8672 180.148 34.5078C178.68 35.1484 177 35.4688 175.109 35.4688C173.234 35.4688 171.555 35.1484 170.07 34.5078C168.586 33.8672 167.336 32.9688 166.32 31.8125C165.305 30.6406 164.531 29.2734 164 27.7109C163.469 26.1328 163.203 24.4219 163.203 22.5781ZM169.391 22.0859V22.5781C169.391 23.6875 169.5 24.7266 169.719 25.6953C169.938 26.6641 170.273 27.5156 170.727 28.25C171.18 28.9844 171.766 29.5625 172.484 29.9844C173.219 30.3906 174.094 30.5938 175.109 30.5938C176.109 30.5938 176.969 30.3906 177.688 29.9844C178.406 29.5625 178.992 28.9844 179.445 28.25C179.914 27.5156 180.258 26.6641 180.477 25.6953C180.695 24.7266 180.805 23.6875 180.805 22.5781V22.0859C180.805 20.9922 180.695 19.9688 180.477 19.0156C180.258 18.0469 179.914 17.1953 179.445 16.4609C178.992 15.7109 178.398 15.125 177.664 14.7031C176.945 14.2656 176.078 14.0469 175.062 14.0469C174.062 14.0469 173.203 14.2656 172.484 14.7031C171.766 15.125 171.18 15.7109 170.727 16.4609C170.273 17.1953 169.938 18.0469 169.719 19.0156C169.5 19.9688 169.391 20.9922 169.391 22.0859Z" fill="#000D81"/>
<path d="M199.906 30.3125L205.812 9.64062H212.281L203.586 35H199.648L199.906 30.3125ZM195.594 9.64062L201.57 30.3594L201.781 35H197.82L189.102 9.64062H195.594Z" fill="#DA0000"/>
<path d="M226.93 35.4688C225.008 35.4688 223.281 35.1562 221.75 34.5312C220.219 33.9062 218.914 33.0391 217.836 31.9297C216.773 30.8047 215.953 29.5 215.375 28.0156C214.812 26.5156 214.531 24.9062 214.531 23.1875V22.25C214.531 20.2969 214.812 18.5234 215.375 16.9297C215.938 15.3203 216.734 13.9375 217.766 12.7812C218.797 11.625 220.031 10.7344 221.469 10.1094C222.906 9.48438 224.492 9.17188 226.227 9.17188C228.023 9.17188 229.609 9.47656 230.984 10.0859C232.359 10.6797 233.508 11.5234 234.43 12.6172C235.352 13.7109 236.047 15.0234 236.516 16.5547C236.984 18.0703 237.219 19.75 237.219 21.5938V24.1953H217.344V19.9297H231.125V19.4609C231.094 18.4766 230.906 17.5781 230.562 16.7656C230.219 15.9375 229.688 15.2812 228.969 14.7969C228.25 14.2969 227.32 14.0469 226.18 14.0469C225.258 14.0469 224.453 14.25 223.766 14.6562C223.094 15.0469 222.531 15.6094 222.078 16.3438C221.641 17.0625 221.312 17.9219 221.094 18.9219C220.875 19.9219 220.766 21.0312 220.766 22.25V23.1875C220.766 24.25 220.906 25.2344 221.188 26.1406C221.484 27.0469 221.914 27.8359 222.477 28.5078C223.055 29.1641 223.742 29.6797 224.539 30.0547C225.352 30.4141 226.273 30.5938 227.305 30.5938C228.602 30.5938 229.773 30.3438 230.82 29.8438C231.883 29.3281 232.805 28.5703 233.586 27.5703L236.703 30.8047C236.172 31.5859 235.453 32.3359 234.547 33.0547C233.656 33.7734 232.578 34.3594 231.312 34.8125C230.047 35.25 228.586 35.4688 226.93 35.4688Z" fill="#0DA200"/>
<path d="M247.555 14.8203V35H241.367V9.64062H247.227L247.555 14.8203ZM255.266 9.47656L255.172 15.2422C254.828 15.1797 254.438 15.1328 254 15.1016C253.578 15.0703 253.18 15.0547 252.805 15.0547C251.852 15.0547 251.016 15.1875 250.297 15.4531C249.578 15.7031 248.977 16.0703 248.492 16.5547C248.023 17.0391 247.664 17.6328 247.414 18.3359C247.164 19.0234 247.023 19.8047 246.992 20.6797L245.656 20.5156C245.656 18.9062 245.82 17.4141 246.148 16.0391C246.477 14.6641 246.953 13.4609 247.578 12.4297C248.203 11.3984 248.984 10.6016 249.922 10.0391C250.875 9.46094 251.969 9.17188 253.203 9.17188C253.547 9.17188 253.914 9.20312 254.305 9.26562C254.711 9.3125 255.031 9.38281 255.266 9.47656Z" fill="#0017E6"/>
<path d="M272.609 28.0625C272.609 27.5312 272.469 27.0547 272.188 26.6328C271.906 26.2109 271.375 25.8281 270.594 25.4844C269.828 25.125 268.703 24.7891 267.219 24.4766C265.906 24.1953 264.695 23.8438 263.586 23.4219C262.477 23 261.523 22.4922 260.727 21.8984C259.93 21.2891 259.305 20.5781 258.852 19.7656C258.414 18.9375 258.195 17.9844 258.195 16.9062C258.195 15.8594 258.422 14.875 258.875 13.9531C259.328 13.0156 259.984 12.1953 260.844 11.4922C261.703 10.7734 262.75 10.2109 263.984 9.80469C265.219 9.38281 266.609 9.17188 268.156 9.17188C270.312 9.17188 272.164 9.52344 273.711 10.2266C275.273 10.9297 276.469 11.8984 277.297 13.1328C278.125 14.3516 278.539 15.7266 278.539 17.2578H272.352C272.352 16.5859 272.195 15.9766 271.883 15.4297C271.586 14.8828 271.125 14.4453 270.5 14.1172C269.875 13.7734 269.086 13.6016 268.133 13.6016C267.273 13.6016 266.547 13.7422 265.953 14.0234C265.375 14.3047 264.938 14.6719 264.641 15.125C264.344 15.5781 264.195 16.0781 264.195 16.625C264.195 17.0312 264.273 17.3984 264.43 17.7266C264.602 18.0391 264.875 18.3281 265.25 18.5938C265.625 18.8594 266.133 19.1016 266.773 19.3203C267.43 19.5391 268.234 19.75 269.188 19.9531C271.078 20.3281 272.727 20.8281 274.133 21.4531C275.555 22.0625 276.664 22.875 277.461 23.8906C278.258 24.9062 278.656 26.2031 278.656 27.7812C278.656 28.9062 278.414 29.9375 277.93 30.875C277.445 31.7969 276.742 32.6016 275.82 33.2891C274.898 33.9766 273.797 34.5156 272.516 34.9062C271.234 35.2812 269.789 35.4688 268.18 35.4688C265.852 35.4688 263.883 35.0547 262.273 34.2266C260.664 33.3828 259.445 32.3203 258.617 31.0391C257.789 29.7422 257.375 28.3984 257.375 27.0078H263.305C263.352 27.9922 263.617 28.7812 264.102 29.375C264.586 29.9688 265.195 30.3984 265.93 30.6641C266.68 30.9141 267.469 31.0391 268.297 31.0391C269.234 31.0391 270.023 30.9141 270.664 30.6641C271.305 30.3984 271.789 30.0469 272.117 29.6094C272.445 29.1562 272.609 28.6406 272.609 28.0625Z" fill="#FB000F"/>
</g>
<defs>
<filter id="filter0_di_8_3" x="0.109375" y="0.382812" width="282.547" height="43.0859" filterUnits="userSpaceOnUse" color-interpolation-filters="sRGB">
<feFlood flood-opacity="0" result="BackgroundImageFix"/>
<feColorMatrix in="SourceAlpha" type="matrix" values="0 0 0 0 0 0 0 0 0 0 0 0 0 0 0 0 0 0 127 0" result="hardAlpha"/>
<feOffset dy="4"/>
<feGaussianBlur stdDeviation="2"/>
<feComposite in2="hardAlpha" operator="out"/>
<feColorMatrix type="matrix" values="0 0 0 0 0 0 0 0 0 0 0 0 0 0 0 0 0 0 0.25 0"/>
<feBlend mode="normal" in2="BackgroundImageFix" result="effect1_dropShadow_8_3"/>
<feBlend mode="normal" in="SourceGraphic" in2="effect1_dropShadow_8_3" result="shape"/>
<feColorMatrix in="SourceAlpha" type="matrix" values="0 0 0 0 0 0 0 0 0 0 0 0 0 0 0 0 0 0 127 0" result="hardAlpha"/>
<feOffset dy="4"/>
<feGaussianBlur stdDeviation="2"/>
<feComposite in2="hardAlpha" operator="arithmetic" k2="-1" k3="1"/>
<feColorMatrix type="matrix" values="0 0 0 0 0 0 0 0 0 0 0 0 0 0 0 0 0 0 0.25 0"/>
<feBlend mode="normal" in2="shape" result="effect2_innerShadow_8_3"/>
</filter>
</defs>
</svg>
